<svg width="14" height="14" viewBox="0 0 14 14" fill="none" xmlns="http://www.w3.org/2000/svg">
<path d="M12.8015 1.93486C12.5822 1.71506 12.2905 1.59357 11.9802 1.59306L9.03044 1.58799L8.98916 1.05211C8.9856 0.774112 8.87545 0.513029 8.67883 0.315736C8.4785 0.11489 8.21149 0.00355332 7.92723 0.00304571L6.08222 0C6.08171 0 6.08086 0 6.08036 0C5.79694 0 5.53044 0.109983 5.32943 0.310152C5.13213 0.506768 5.02147 0.767174 5.01674 1.04535L4.97359 1.58105L2.02198 1.57597C1.38205 1.57597 0.860729 2.09645 0.859714 2.73621L0.859375 2.85211C0.859206 2.96125 0.902354 3.06599 0.979342 3.14315C1.05616 3.2203 1.16073 3.26396 1.26987 3.26413L12.7282 3.28393C12.7286 3.28393 12.7286 3.28393 12.7289 3.28393C12.9557 3.28393 13.1396 3.10051 13.1401 2.8736L13.1404 2.75753C13.1411 2.44704 13.0203 2.15499 12.8015 1.93486ZM5.77613 1.09306C5.77697 1.08291 5.77731 1.0731 5.77731 1.06311C5.77748 0.982064 5.80912 0.905922 5.86648 0.848731C5.92367 0.791709 5.99965 0.760406 6.08053 0.760406C6.0807 0.760406 6.08086 0.760406 6.08103 0.760406L7.92621 0.76379C8.00726 0.76379 8.08323 0.795601 8.14043 0.852792C8.19762 0.909983 8.22909 0.986294 8.22875 1.06734C8.22875 1.0775 8.22909 1.08731 8.22993 1.09729L8.26784 1.58697L5.7367 1.58223L5.77613 1.09306Z" fill="#E0F0F1"/>
<path d="M12.164 3.7085H1.75702C1.43655 3.7085 1.17682 3.96823 1.17682 4.28853C1.17682 4.609 1.43655 4.86873 1.75702 4.86873H1.85567L2.97479 13.4894C3.01269 13.7816 3.26125 14 3.55567 14H10.3457C10.6404 14 10.889 13.7809 10.9266 13.4889L12.0296 4.8689H12.1641C12.4844 4.8689 12.7442 4.60917 12.7442 4.2887C12.7438 3.96823 12.4841 3.7085 12.164 3.7085ZM4.71878 12.6792C4.71235 12.6796 4.70575 12.6796 4.69949 12.6796C4.51963 12.6796 4.36921 12.5391 4.35905 12.3574L4.08596 7.47652C4.07547 7.28819 4.21946 7.12728 4.40762 7.11679C4.59594 7.1063 4.75668 7.25029 4.76734 7.43828L5.04027 12.3195C5.05076 12.5073 4.90694 12.6686 4.71878 12.6792ZM7.30169 12.3384C7.30169 12.5268 7.1489 12.6796 6.96041 12.6796C6.77191 12.6796 6.61912 12.5269 6.61912 12.3384V7.4574C6.61912 7.26907 6.77174 7.11628 6.96041 7.11628C7.14873 7.11628 7.30169 7.26907 7.30169 7.4574V12.3384ZM9.8352 7.47652L9.5621 12.3574C9.55195 12.5391 9.40153 12.6796 9.22166 12.6796C9.21523 12.6796 9.20863 12.6796 9.20237 12.6792C9.01438 12.6686 8.87005 12.5073 8.88054 12.3193L9.15364 7.43811C9.16413 7.25012 9.32572 7.10562 9.51337 7.11662C9.70169 7.12728 9.84535 7.28819 9.8352 7.47652Z" fill="#E0F0F1"/>
</svg>
