<svg width="12" height="11" viewBox="0 0 12 11" fill="#c79288" xmlns="http://www.w3.org/2000/svg">
<path fill-rule="evenodd" clip-rule="evenodd" d="M2.47355 1.52298C2.63247 0.907276 3.19211 0.451569 3.8571 0.451569C4.52209 0.451569 5.08172 0.907276 5.24065 1.52298H11.357C11.5541 1.52298 11.7141 1.68298 11.7141 1.88012C11.7141 2.07726 11.5541 2.23725 11.357 2.23725H5.24065C5.08172 2.85296 4.52209 3.30867 3.8571 3.30867C3.19211 3.30867 2.63247 2.85296 2.47355 2.23725H1.35714C1.16 2.23725 1 2.07726 1 1.88012C1 1.68298 1.16 1.52298 1.35714 1.52298H2.47355Z" fill="#c79288" stroke="#c79288" stroke-width="0.4"/>
<path fill-rule="evenodd" clip-rule="evenodd" d="M2.4853 8.66589H1.36889C1.17175 8.66589 1.01175 8.82589 1.01175 9.02303C1.01175 9.22017 1.17175 9.38017 1.36889 9.38017H2.4853C2.64422 9.99587 3.20386 10.4516 3.86885 10.4516C4.53384 10.4516 5.09347 9.99587 5.2524 9.38017H11.3687C11.5659 9.38017 11.7259 9.22017 11.7259 9.02303C11.7259 8.82589 11.5659 8.66589 11.3687 8.66589H5.2524C5.09347 8.05019 4.53384 7.59448 3.86885 7.59448C3.20386 7.59448 2.64422 8.05019 2.4853 8.66589Z" fill="#c79288" stroke="#c79288" stroke-width="0.4"/>
<path fill-rule="evenodd" clip-rule="evenodd" d="M6.74455 5.09418H1.35714C1.16 5.09418 1 5.25417 1 5.45131C1 5.64845 1.16 5.80845 1.35714 5.80845H6.74455C6.90312 6.42416 7.46275 6.87986 8.1281 6.87986C8.79309 6.87986 9.35272 6.42416 9.51129 5.80845H11.357C11.5541 5.80845 11.7141 5.64845 11.7141 5.45131C11.7141 5.25417 11.5541 5.09418 11.357 5.09418H9.51129C9.35272 4.47847 8.79309 4.02277 8.1281 4.02277C7.46275 4.02277 6.90312 4.47847 6.74455 5.09418Z" fill="#c79288" stroke="#c79288" stroke-width="0.4"/>
</svg>
