<svg width="512" height="512" viewBox="0 0 512 512" fill="none" xmlns="http://www.w3.org/2000/svg">
  <path d="M292.836 511.916H330.017L274.93 371.034H237.749L237.782 371.119H237.311L182.225 512H219.406L227.363 491.648H284.908L292.836 511.916ZM240.334 458.485L256.14 418.064L271.947 458.485H240.334Z" fill="black"/>
  <path d="M124.821 476.804H57.2465V371.077H20.0656V476.804V511.759V511.958H57.2465V511.759H124.821V476.804Z" fill="black"/>
  <path d="M119.576 33.7452V0H17.2451V23.1725V33.7452V53.6569V87.3991V107.311V117.884V141.056H124.821V107.311H54.4261V87.3991H111.959V53.6569H54.4261V33.7452H119.576Z" fill="black"/>
  <path d="M489.977 33.9715V0.226257H387.646V23.3988V33.9715V53.8832V87.6254V107.537V118.11V141.282H495.222V107.537H424.827V87.6254H482.36V53.8832H424.827V33.9715H489.977Z" fill="black"/>
  <path d="M489.751 219.351V185.606H387.42V208.779V219.351V239.263V273.008V292.92V303.493V326.662H494.996V292.92H424.601V273.008H482.134V239.263H424.601V219.351H489.751Z" fill="black"/>
  <path d="M328.55 0H285.886L256.122 45.3496L226.359 0H183.694L237.396 87.1216V141.056H275.072V86.7506L328.55 0Z" fill="black"/>
  <path d="M71.9669 293.056C51.5152 293.056 34.9337 276.474 34.9337 256.023C34.9337 235.571 51.5152 218.989 71.9669 218.989C86.4127 218.989 98.8949 227.279 104.997 239.342L136.423 224.012C124.64 200.333 100.21 184.053 71.9639 184.053C32.2219 184.053 0 216.275 0 256.023C0 295.771 32.2219 327.989 71.9669 327.989C100.521 327.989 125.192 311.36 136.821 287.255L105.377 271.916C99.4258 284.405 86.7234 293.056 71.9669 293.056Z" fill="black"/>
  <path d="M284.399 185.516V263.247H284.38C284.012 278.164 271.506 290.145 256.122 290.145C240.738 290.145 228.232 278.164 227.864 263.247H227.846V185.516H190.442V264.095H190.481C191.338 298.739 220.386 326.572 256.122 326.572C291.858 326.572 320.907 298.739 321.764 264.095H321.803V185.516H284.399V185.516Z" fill="black"/>
  <path d="M490.8 439.225C499.602 432.097 505.192 421.645 505.192 409.962C505.192 388.488 486.402 371.077 463.227 371.077C462.789 371.077 424.601 371.077 424.601 371.077H391.676H387.423V511.958H424.604V511.816H468.554V511.756C469.018 511.771 469.471 511.816 469.938 511.816C493.117 511.816 511.904 494.408 511.904 472.931C511.901 458.5 503.397 445.933 490.8 439.225ZM470.439 414.99C470.439 419.343 467.736 423.05 463.924 424.568H424.601V404.668H460.117C465.818 404.668 470.439 409.289 470.439 414.99ZM466.581 477.211H424.601V454.235H433.219C433.216 454.238 433.216 454.241 433.213 454.244H463.275C469.763 454.244 475.024 459.504 475.024 465.993C475.024 471.326 471.45 475.778 466.581 477.211Z" fill="black"/>
</svg>
