<?xml version="1.0" standalone="no"?>
<!DOCTYPE svg PUBLIC "-//W3C//DTD SVG 20010904//EN"
 "http://www.w3.org/TR/2001/REC-SVG-20010904/DTD/svg10.dtd">
<svg version="1.0" xmlns="http://www.w3.org/2000/svg"
 width="512.000000pt" height="512.000000pt" viewBox="0 0 512.000000 512.000000"
 preserveAspectRatio="xMidYMid meet">
<metadata>
Created by potrace 1.14, written by Peter Selinger 2001-2017
</metadata>
<g transform="translate(0.000000,512.000000) scale(0.100000,-0.100000)"
fill="#000000" stroke="none">
<path d="M171 4415 l0 -705 539 0 540 0 0 169 0 170 -337 0 c-186 0 -345 0
-354 0 -14 1 -16 15 -14 94 1 50 3 95 4 98 0 3 124 5 274 4 149 0 278 1 285 3
9 3 12 46 12 171 l0 166 -272 -1 c-150 0 -280 1 -289 3 -23 6 -22 192 1 194 8
0 153 1 322 1 224 0 308 3 310 11 3 7 4 82 4 167 l-1 155 -512 3 -512 2 0
-705z"/>
<path d="M1846 5108 c11 -19 345 -563 443 -721 l85 -138 0 -270 0 -269 188 0
188 0 0 270 0 270 50 81 c28 44 50 83 50 85 0 2 16 27 35 54 19 27 35 52 35
54 0 2 68 113 150 246 83 133 150 246 150 251 0 5 4 9 8 9 7 0 25 30 50 83 2
4 -91 7 -207 7 l-211 0 -17 -27 c-10 -16 -22 -32 -26 -38 -5 -5 -64 -95 -132
-199 l-124 -189 -148 226 -148 226 -213 1 c-168 0 -212 -3 -206 -12z"/>
<path d="M3879 5111 c-1 -3 -2 -318 -2 -700 -2 -563 0 -694 11 -699 7 -2 249
-5 538 -6 l524 -1 1 30 c1 38 1 298 0 305 -1 3 -158 5 -351 5 l-350 0 0 97 c0
71 3 98 13 99 6 1 136 2 287 3 l274 1 1 168 0 167 -287 0 -288 0 0 100 0 100
325 0 325 0 0 168 0 169 -510 0 c-280 0 -510 -3 -511 -6z"/>
<path d="M575 3265 c-274 -60 -485 -264 -555 -535 -26 -103 -22 -275 10 -375
70 -219 222 -384 428 -464 105 -40 169 -50 292 -47 243 7 467 141 591 353 l28
48 -152 77 c-84 42 -154 77 -157 77 -3 1 -14 -14 -24 -31 -29 -51 -96 -110
-161 -143 -54 -27 -69 -30 -155 -30 -85 0 -101 3 -155 29 -77 38 -149 111
-183 184 -22 48 -26 71 -26 152 -1 84 3 102 28 155 100 209 358 277 551 145
22 -15 51 -42 65 -60 61 -80 38 -80 200 0 80 39 149 75 154 80 27 26 -160 236
-266 299 -32 18 -97 47 -145 64 -74 25 -106 30 -198 32 -64 2 -135 -3 -170
-10z"/>
<path d="M1906 2835 c1 -374 3 -438 18 -495 92 -345 445 -550 798 -465 222 54
396 217 470 440 22 69 23 78 23 510 l0 440 -185 0 -185 0 -1 -405 c-1 -418 -3
-447 -43 -510 -24 -38 -70 -79 -115 -103 -58 -31 -193 -31 -251 0 -87 46 -143
126 -152 217 -2 28 -5 220 -6 426 l-2 375 -185 0 -185 0 1 -430z"/>
<path d="M3889 3262 c-14 -3 -16 -71 -16 -706 l0 -702 539 0 538 0 0 168 0
168 -349 0 c-270 0 -350 3 -353 13 -3 10 -2 134 1 175 1 9 65 12 286 12 l285
0 1 55 c0 30 0 75 0 100 0 25 0 76 0 114 l-1 69 -285 -1 c-222 -2 -285 1 -286
11 -1 16 -1 158 0 175 1 11 63 13 324 13 l322 0 1 167 c1 92 -1 167 -5 168
-18 3 -988 4 -1002 1z"/>
<path d="M200 705 l0 -705 525 2 525 2 0 173 0 173 -27 1 c-16 0 -168 1 -340
1 l-312 1 0 481 c0 265 0 502 -1 529 l0 47 -185 0 -185 0 0 -705z"/>
<path d="M2152 843 c-122 -313 -246 -630 -276 -705 l-54 -138 187 0 187 0 33
91 c19 50 39 96 46 102 13 14 559 16 572 3 5 -4 24 -49 44 -99 l35 -92 187 -3
187 -2 -9 22 c-70 182 -511 1311 -538 1376 -4 9 -52 12 -192 12 l-188 0 -221
-567z m494 -118 c36 -93 68 -174 70 -180 3 -6 -52 -10 -151 -10 -85 0 -155 3
-155 8 0 4 23 67 51 140 71 182 71 182 70 185 -1 1 6 17 15 35 16 29 18 30 25
12 5 -11 38 -96 75 -190z"/>
<path d="M3878 1408 c-1 -2 -2 -319 -3 -706 l-2 -702 431 1 c237 0 454 5 481
10 126 23 245 114 299 229 26 56 30 77 31 150 0 75 -4 93 -31 150 -33 69 -89
135 -141 165 l-32 18 40 45 c21 25 51 70 66 101 25 49 28 68 28 151 0 82 -4
103 -27 153 -52 111 -174 204 -299 227 -43 8 -836 15 -841 8z m781 -355 c52
-39 57 -116 9 -160 -18 -16 -40 -18 -219 -19 -137 -1 -199 3 -200 10 -6 73 -2
179 8 184 6 4 93 6 193 6 164 -2 185 -4 209 -21z m58 -517 c32 -35 35 -42 30
-83 -3 -33 -13 -54 -35 -76 l-30 -30 -183 1 c-101 1 -200 1 -219 2 l-35 0 0
108 c0 59 4 110 9 113 4 4 103 6 218 5 l210 -1 35 -39z"/>
</g>
</svg>
